<?xml version="1.0" encoding="utf-8"?>
<!-- Generator: $$$/GeneralStr/196=Adobe Illustrator 27.6.0, SVG Export Plug-In . SVG Version: 6.00 Build 0)  -->
<svg version="1.1" id="Layer_1" xmlns="http://www.w3.org/2000/svg" xmlns:xlink="http://www.w3.org/1999/xlink" x="0px" y="0px"
	 viewBox="0 0 336.5 140.2" style="enable-background:new 0 0 336.5 140.2;" xml:space="preserve">
<style type="text/css">
	.st0{fill:#E6E6E6;stroke:#000000;stroke-linecap:square;stroke-miterlimit:10;}
	.st1{fill:none;stroke:#000000;stroke-linecap:square;stroke-miterlimit:10;}
	.st2{font-family:'Avenir-Book';}
	.st3{font-size:12px;}
	.st4{letter-spacing:-1;}
	.st5{fill:none;stroke:#000000;stroke-width:0.25;stroke-linecap:square;stroke-miterlimit:10;}
	
		.st6{clip-path:url(#SVGID_00000178918748998181911360000003839796838346850468_);fill:#E99000;stroke:#000000;stroke-linecap:square;stroke-miterlimit:10;}
	
		.st7{opacity:0.58;clip-path:url(#SVGID_00000101095494878689527350000000109686786824524682_);fill:#4A87FF;stroke:#000000;stroke-linecap:square;stroke-miterlimit:10;}
	.st8{fill:none;stroke:#000000;stroke-width:1.5;stroke-linecap:square;stroke-miterlimit:10;}
</style>
<path class="st0" d="M294.3,114.8c-7.6-0.7-15-2-22-5c-8.9-3.8-15.8-9.7-22.1-16.9c-8.3-9.6-15.7-22.1-22.1-33
	c-5.4-9-14.1-24.3-22.1-31.3c-7.6-6.6-14.5-6.6-22,0.1c-8,7.1-16.6,22.4-21.9,31.5c-6.4,11-13.6,23.5-21.9,33.2
	c-6.2,7.3-13.1,13.3-21.9,17.1c-7,3.1-14.4,4.4-22,5.2"/>
<line class="st1" x1="8.5" y1="115.8" x2="298" y2="115.8"/>
<polygon points="305.1,115.8 297.5,118.6 297.5,113.1 "/>
<path class="st1" d="M208.9,115.2c-7.6-0.7-15-2-22-5.1c-8.8-3.8-15.8-9.7-22-17c-8.3-9.7-15.6-22.1-22-33.1
	c-5.3-9.1-14-24.3-22-31.4c-7.5-6.7-14.5-6.7-22,0c-8,7.1-16.7,22.4-22,31.4c-6.4,10.9-13.7,23.4-22,33.1c-6.2,7.2-13.2,13.2-22,17
	c-7,3-14.4,4.3-22,5.1"/>
<text transform="matrix(1 0 0 1 85.722 133.7135)"><tspan x="0" y="0" class="st2 st3 st4">T</tspan><tspan x="5.6" y="0" class="st2 st3">a</tspan><tspan x="11.8" y="0" class="st2 st3">r</tspan><tspan x="15.6" y="0" class="st2 st3">get</tspan></text>
<text transform="matrix(1 0 0 1 180.5638 133.4816)" class="st2 st3">Distractor</text>
<text transform="matrix(1 0 0 1 273.429 133.146)" class="st2 st3">Saliency</text>
<line class="st1" x1="114.4" y1="18.3" x2="185.6" y2="18.3"/>
<path d="M193.7,18.3l-7.5,2.7v-5.5L193.7,18.3z M106.4,18.3l7.5-2.7v5.5L106.4,18.3z"/>
<path class="st5" d="M193.7,18.3l-7.5,2.7v-5.5L193.7,18.3z M106.4,18.3l7.5-2.7v5.5L106.4,18.3z"/>
<path d="M153.5,11.6h-0.8v-0.9h0c-0.1,0.2-0.3,0.4-0.5,0.5c-0.2,0.1-0.4,0.2-0.6,0.3s-0.4,0.2-0.6,0.2c-0.2,0-0.4,0.1-0.6,0.1
	c-0.4,0-0.8-0.1-1.2-0.2c-0.4-0.1-0.7-0.4-0.9-0.6c-0.3-0.3-0.5-0.6-0.6-0.9c-0.1-0.4-0.2-0.8-0.2-1.2s0.1-0.8,0.2-1.2
	c0.1-0.4,0.4-0.7,0.6-0.9c0.3-0.3,0.6-0.5,0.9-0.6c0.4-0.1,0.8-0.2,1.2-0.2c0.2,0,0.4,0,0.6,0.1c0.2,0,0.4,0.1,0.6,0.2
	s0.4,0.2,0.6,0.3c0.2,0.1,0.3,0.3,0.5,0.5h0V2.5h0.8V11.6z M148.3,8.8c0,0.3,0,0.6,0.1,0.9c0.1,0.3,0.2,0.5,0.4,0.7
	c0.2,0.2,0.4,0.4,0.7,0.5c0.3,0.1,0.6,0.2,0.9,0.2c0.3,0,0.6-0.1,0.9-0.2s0.5-0.3,0.7-0.5s0.4-0.4,0.5-0.7c0.1-0.3,0.2-0.6,0.2-0.9
	s-0.1-0.6-0.2-0.9c-0.1-0.3-0.3-0.5-0.5-0.7s-0.4-0.4-0.7-0.5s-0.6-0.2-0.9-0.2c-0.3,0-0.6,0.1-0.9,0.2c-0.3,0.1-0.5,0.3-0.7,0.5
	c-0.2,0.2-0.3,0.4-0.4,0.7C148.4,8.2,148.3,8.5,148.3,8.8z"/>
<text transform="matrix(1 0 0 1 198.2235 18.3989)"><tspan x="0" y="0" class="st2 st3">supp</tspan><tspan x="26.4" y="0" class="st2 st3">r</tspan><tspan x="30.2" y="0" class="st2 st3">ession</tspan></text>
<text transform="matrix(1 0 0 1 162.6224 132.7696)" class="st2 st3">a</text>
<text transform="matrix(-2.424523e-02 -0.9997 0.9997 -2.424523e-02 178.7393 75.7769)" class="st2 st3">Threshold</text>
<g>
	<defs>
		<rect id="SVGID_1_" x="167.5" y="93.9" width="42.6" height="22.9"/>
	</defs>
	<clipPath id="SVGID_00000004527245603120684580000007470871615750991526_">
		<use xlink:href="#SVGID_1_"  style="overflow:visible;"/>
	</clipPath>
	
		<path style="clip-path:url(#SVGID_00000004527245603120684580000007470871615750991526_);fill:#E99000;stroke:#000000;stroke-linecap:square;stroke-miterlimit:10;" d="
		M210.1,115.8c-7.6-0.7-15-2-22-5c-8.9-3.8-15.8-9.7-22.1-16.9c-8.3-9.6-15.7-22.1-22.1-33c-5.4-9-14.1-24.3-22.1-31.3
		c-7.6-6.6-14.5-6.6-22,0.1c-8,7.1-16.6,22.4-21.9,31.5c-6.4,11-13.6,23.5-21.9,33.2c-6.2,7.3-13.1,13.3-21.9,17.1
		c-7,3.1-14.4,4.4-22,5.2"/>
</g>
<g>
	<defs>
		<rect id="SVGID_00000073691361530820658760000011587154845574100127_" x="92.3" y="50.1" width="73.6" height="65.4"/>
	</defs>
	<clipPath id="SVGID_00000134231422573439768710000012602485041690049441_">
		<use xlink:href="#SVGID_00000073691361530820658760000011587154845574100127_"  style="overflow:visible;"/>
	</clipPath>
	
		<path style="opacity:0.58;clip-path:url(#SVGID_00000134231422573439768710000012602485041690049441_);fill:#4A87FF;stroke:#000000;stroke-linecap:square;stroke-miterlimit:10;" d="
		M294.3,115.4c-7.6-0.7-15-2-22-5.1c-8.8-3.8-15.8-9.7-22-17c-8.3-9.7-15.6-22.1-22-33.1c-5.3-9.1-14-24.3-22-31.4
		c-7.5-6.7-14.5-6.7-22,0c-8,7.1-16.7,22.4-22,31.4c-6.4,10.9-13.7,23.4-22,33.1c-6.2,7.2-13.2,13.2-22,17c-7,3-14.4,4.3-22,5.1"/>
</g>
<polygon points="156.8,5.9 156,5.9 156.8,3.1 157.8,3.1 "/>
<line class="st8" x1="166.5" y1="115.8" x2="165.8" y2="7.1"/>
</svg>
